<svg xmlns="http://www.w3.org/2000/svg" width="16" height="16.254" viewBox="0 0 16 16.254">
  <path id="home_storage_FILL1_wght400_GRAD0_opsz48" d="M128.449,232.254a1.3,1.3,0,0,1-.869-.316,1.349,1.349,0,0,1-.463-.813l-1.49-8.917a.688.688,0,0,1,.147-.553.621.621,0,0,1,.508-.237h14.673a.621.621,0,0,1,.508.237.688.688,0,0,1,.147.553l-1.49,8.917a1.349,1.349,0,0,1-.463.813,1.3,1.3,0,0,1-.869.316Zm3.364-5.869h3.612a.639.639,0,0,0,.485-.2.669.669,0,0,0,.192-.474.656.656,0,0,0-.677-.677h-3.612a.669.669,0,0,0-.474.192.639.639,0,0,0-.2.485.694.694,0,0,0,.677.677Zm-3.612-6.321a.694.694,0,0,1-.677-.677.639.639,0,0,1,.2-.485.669.669,0,0,1,.474-.192h10.836a.656.656,0,0,1,.677.677.669.669,0,0,1-.192.474.639.639,0,0,1-.485.2Zm1.806-2.709a.694.694,0,0,1-.677-.677.639.639,0,0,1,.2-.485.669.669,0,0,1,.474-.192h7.224a.656.656,0,0,1,.677.677.669.669,0,0,1-.192.474.639.639,0,0,1-.485.2Z" transform="translate(-125.619 -216)" fill="#f3f0ef"/>
</svg>
