<svg xmlns="http://www.w3.org/2000/svg" width="16" height="16" viewBox="0 0 16 16">
  <path id="summarize_FILL1_wght400_GRAD0_opsz48" d="M121.333,232A1.367,1.367,0,0,1,120,230.667V217.333A1.367,1.367,0,0,1,121.333,216H131.6l4.4,4.4v10.267A1.367,1.367,0,0,1,134.667,232Zm13.333-10.867-3.8-3.8v3.133a.646.646,0,0,0,.667.667Zm-10.467-.267a.684.684,0,1,0-.467-.2A.64.64,0,0,0,124.2,220.867Zm0,3.8a.684.684,0,1,0-.467-.2A.64.64,0,0,0,124.2,224.667Zm0,3.8a.684.684,0,1,0-.467-.2A.64.64,0,0,0,124.2,228.467Z" transform="translate(-120 -216)" fill="#f3f0ef"/>
</svg>
