<svg id="visualizar_senha" data-name="visualizar senha" xmlns="http://www.w3.org/2000/svg" width="35.757" height="32" viewBox="0 0 35.757 32">
  <path id="visibility_off_FILL1_wght400_GRAD0_opsz48" d="M76.357,227.205l-5.326-5.326a5.454,5.454,0,0,0,.64-1.548,7.219,7.219,0,0,0,.227-1.8,6.979,6.979,0,0,0-7.019-7.019,7.638,7.638,0,0,0-1.775.206,4.991,4.991,0,0,0-1.569.661L56.992,207.8a18.724,18.724,0,0,1,3.7-1.156,20.418,20.418,0,0,1,4.4-.5A18.508,18.508,0,0,1,75.366,209.2a19.819,19.819,0,0,1,7.185,8.217,1.315,1.315,0,0,1,.165.5,4.384,4.384,0,0,1,.041.619,4.838,4.838,0,0,1-.041.64,1.341,1.341,0,0,1-.165.516,19.816,19.816,0,0,1-2.643,4.17A19.463,19.463,0,0,1,76.357,227.205Zm1.486,8.423-6.028-5.9a16.041,16.041,0,0,1-3.262.888,21.831,21.831,0,0,1-3.675.31,18.914,18.914,0,0,1-10.446-3.055,19.723,19.723,0,0,1-7.226-8.217,1.739,1.739,0,0,1-.165-.516,3.958,3.958,0,0,1-.041-.6,3.256,3.256,0,0,1,.062-.64,2.992,2.992,0,0,1,.145-.516,19.587,19.587,0,0,1,2.209-3.613,22.314,22.314,0,0,1,3.159-3.324l-4.335-4.335a1.2,1.2,0,0,1,0-1.734,1.246,1.246,0,0,1,1.775,0l29.564,29.564a1.1,1.1,0,0,1,.33.805,1.239,1.239,0,0,1-.33.846,1.036,1.036,0,0,1-.846.413A1.212,1.212,0,0,1,77.844,235.628ZM64.879,225.554a8.046,8.046,0,0,0,1.239-.1,4.322,4.322,0,0,0,1.115-.31l-8.96-8.96a5.056,5.056,0,0,0-.31,1.115,7.523,7.523,0,0,0-.1,1.239,6.718,6.718,0,0,0,2.065,5A6.827,6.827,0,0,0,64.879,225.554Zm4.335-5.492L63.351,214.2a4.411,4.411,0,0,1,4.748.991A4.1,4.1,0,0,1,69.214,220.062Z" transform="translate(-47 -204)" fill="#231f20" opacity="0.5"/>
  <path id="visibility_FILL1_wght400_GRAD0_opsz48" d="M64.884,275.406a6.987,6.987,0,1,0-4.975-2.044A6.758,6.758,0,0,0,64.884,275.406Zm-.015-2.395A4.437,4.437,0,0,1,61.6,271.66a4.486,4.486,0,0,1-1.342-3.283,4.437,4.437,0,0,1,1.352-3.273,4.486,4.486,0,0,1,3.283-1.342,4.437,4.437,0,0,1,3.273,1.352A4.486,4.486,0,0,1,69.5,268.4a4.437,4.437,0,0,1-1.352,3.273A4.485,4.485,0,0,1,64.869,273.012Zm.01,7.763a18.435,18.435,0,0,1-10.384-3.1,20.847,20.847,0,0,1-7.24-8.179,1.486,1.486,0,0,1-.192-.5,3.056,3.056,0,0,1,0-1.224,1.487,1.487,0,0,1,.192-.5,20.847,20.847,0,0,1,7.24-8.179,18.96,18.96,0,0,1,20.769,0,20.847,20.847,0,0,1,7.24,8.179,1.487,1.487,0,0,1,.192.5,3.057,3.057,0,0,1,0,1.224,1.487,1.487,0,0,1-.192.5,20.847,20.847,0,0,1-7.24,8.179A18.435,18.435,0,0,1,64.879,280.774Z" transform="translate(-47 -253.823)" fill="#231f20" opacity="0"/>
</svg>
