<svg xmlns="http://www.w3.org/2000/svg" width="24" height="24" viewBox="0 0 24 24">
  <path id="arrow_circle_left_FILL1_wght400_GRAD0_opsz48" d="M91.4,191.78a.785.785,0,0,0,.615.225.886.886,0,0,0,.615-.255.87.87,0,0,0,0-1.26l-1.59-1.59h4.59a.815.815,0,0,0,.615-.27A.889.889,0,0,0,96.5,188a.872.872,0,0,0-.9-.9H91.04l1.62-1.62a.785.785,0,0,0,.225-.615.886.886,0,0,0-.255-.615.87.87,0,0,0-1.26,0l-3.12,3.12a.87.87,0,0,0,0,1.26ZM92,200a12.171,12.171,0,0,1-4.74-.915,11.614,11.614,0,0,1-6.345-6.345,12.657,12.657,0,0,1,0-9.45,11.712,11.712,0,0,1,2.535-3.81,12.07,12.07,0,0,1,17.07,17.07,11.711,11.711,0,0,1-3.81,2.535A12.093,12.093,0,0,1,92,200Z" transform="translate(104 200) rotate(180)" fill="#231f20"/>
</svg>
