<svg xmlns="http://www.w3.org/2000/svg" width="16" height="16.271" viewBox="0 0 16 16.271">
  <path id="logout_FILL1_wght400_GRAD0_opsz48" d="M131.864,227.593a.67.67,0,0,1-.2-.492.633.633,0,0,1,.2-.48l1.808-1.808h-7.232a.654.654,0,0,1-.483-.2.662.662,0,0,1-.195-.486.649.649,0,0,1,.195-.482.661.661,0,0,1,.483-.192h7.186l-1.831-1.831a.626.626,0,0,1-.181-.462.658.658,0,0,1,.208-.486.626.626,0,0,1,.477-.2.668.668,0,0,1,.49.2l3.006,3.006a.63.63,0,0,1,.2.478.655.655,0,0,1-.045.246.689.689,0,0,1-.158.226l-2.983,2.983a.627.627,0,0,1-.463.181A.663.663,0,0,1,131.864,227.593Zm-10.508,4.678A1.39,1.39,0,0,1,120,230.915V217.356A1.39,1.39,0,0,1,121.356,216h5.9a.654.654,0,0,1,.483.2.662.662,0,0,1,.195.486.649.649,0,0,1-.195.482.661.661,0,0,1-.483.192h-5.9v13.559h5.9a.654.654,0,0,1,.483.2.662.662,0,0,1,.195.486.649.649,0,0,1-.195.482.661.661,0,0,1-.483.192Z" transform="translate(-120 -216)" fill="#f3f0ef"/>
</svg>
