<svg xmlns="http://www.w3.org/2000/svg" width="16" height="15.98" viewBox="0 0 16 15.98">
  <path id="stethoscope_FILL1_wght400_GRAD0_opsz48" d="M89.2,191.98a4.9,4.9,0,0,1-3.72-1.57A5.277,5.277,0,0,1,84,186.66v-.7a4.584,4.584,0,0,1-4-4.56v-4a.581.581,0,0,1,.6-.6h1.8v-.2a.6.6,0,1,1,1.2,0v1.6a.592.592,0,0,1-.17.42.566.566,0,0,1-.43.18.581.581,0,0,1-.6-.6V178H81.2v3.4a3.4,3.4,0,1,0,6.8,0V178H86.8v.2a.592.592,0,0,1-.17.42.566.566,0,0,1-.43.18.581.581,0,0,1-.6-.6v-1.6a.6.6,0,1,1,1.2,0v.2h1.8a.581.581,0,0,1,.6.6v4a4.584,4.584,0,0,1-4,4.56v.7a4.113,4.113,0,0,0,1.13,2.91,3.756,3.756,0,0,0,2.87,1.21,3.827,3.827,0,0,0,2.81-1.2,3.991,3.991,0,0,0,1.19-2.92v-1.54a2.18,2.18,0,0,1-1.15-.78,2.2,2.2,0,1,1,3.5,0,2.18,2.18,0,0,1-1.15.78v1.54a5.166,5.166,0,0,1-1.53,3.77A4.974,4.974,0,0,1,89.2,191.98Z" transform="translate(-80 -176)" fill="#f3f0ef"/>
</svg>
