<svg xmlns="http://www.w3.org/2000/svg" width="16" height="13.28" viewBox="0 0 16 13.28">
  <path id="school_FILL1_wght400_GRAD0_opsz48" d="M88.433,234.371a.549.549,0,0,1-.567-.567v-4.76l-6.649,3.589a.923.923,0,0,1-.264.1,1.351,1.351,0,0,1-.283.028,1.22,1.22,0,0,1-.274-.028.947.947,0,0,1-.255-.1l-6.857-3.759a.465.465,0,0,1-.217-.208.64.64,0,0,1,0-.567.465.465,0,0,1,.217-.208l6.838-3.74a1.2,1.2,0,0,1,.264-.113,1.081,1.081,0,0,1,.567,0,1.2,1.2,0,0,1,.264.113l7.481,4.061a.65.65,0,0,1,.227.227.562.562,0,0,1,.076.283V233.8a.549.549,0,0,1-.567.567Zm-7.764,2.909a1.351,1.351,0,0,1-.283-.028.923.923,0,0,1-.264-.1l-4.345-2.38a1.169,1.169,0,0,1-.425-.416,1.107,1.107,0,0,1-.161-.586v-3.287l4.7,2.569.378.189a.876.876,0,0,0,.4.094.935.935,0,0,0,.406-.094q.2-.094.387-.189l4.685-2.569v3.287a1.107,1.107,0,0,1-.161.586,1.169,1.169,0,0,1-.425.416l-4.345,2.38a.923.923,0,0,1-.264.1A1.351,1.351,0,0,1,80.669,237.28Z" transform="translate(-73 -224)" fill="#f3f0ef"/>
</svg>
