<svg xmlns="http://www.w3.org/2000/svg" width="24" height="16" viewBox="0 0 24 16">
  <path id="menu_FILL1_wght400_GRAD0_opsz48" d="M121,352a.965.965,0,0,1-.713-.289.976.976,0,0,1-.287-.717.957.957,0,0,1,.287-.711A.975.975,0,0,1,121,350h10a.965.965,0,0,1,.712.289.976.976,0,0,1,.288.717.957.957,0,0,1-.288.711A.975.975,0,0,1,131,352Zm0-7a.965.965,0,0,1-.713-.289.976.976,0,0,1-.287-.717.957.957,0,0,1,.287-.711A.975.975,0,0,1,121,343h22a.965.965,0,0,1,.712.289.976.976,0,0,1,.288.717.957.957,0,0,1-.288.711A.975.975,0,0,1,143,345Zm0-7a.965.965,0,0,1-.713-.289.976.976,0,0,1-.287-.717.957.957,0,0,1,.287-.711A.975.975,0,0,1,121,336h22a.965.965,0,0,1,.712.289.976.976,0,0,1,.288.717.957.957,0,0,1-.288.711A.975.975,0,0,1,143,338Z" transform="translate(-120 -336)" fill="#f3f0ef"/>
</svg>
