<svg xmlns="http://www.w3.org/2000/svg" width="16" height="14.4" viewBox="0 0 16 14.4">
  <path id="ecg_heart_FILL1_wght400_GRAD0_opsz48" d="M91.3,216a4.351,4.351,0,0,1,3.35,1.48A5.047,5.047,0,0,1,96,221a6.247,6.247,0,0,1-.04.71,4.084,4.084,0,0,1-.14.69h-5l-1.36-2.04a.754.754,0,0,0-.28-.26.771.771,0,0,0-.38-.1.756.756,0,0,0-.47.16.821.821,0,0,0-.29.4l-1.08,3.24-.7-1.04a.754.754,0,0,0-.28-.26.771.771,0,0,0-.38-.1H80.18a4.085,4.085,0,0,1-.14-.69,6.074,6.074,0,0,1-.04-.69,5.093,5.093,0,0,1,1.34-3.54A4.32,4.32,0,0,1,84.68,216a4.384,4.384,0,0,1,1.81.38A4.842,4.842,0,0,1,88,217.44a4.611,4.611,0,0,1,1.49-1.06A4.384,4.384,0,0,1,91.3,216ZM88,230.4a1.866,1.866,0,0,1-.69-.13,1.72,1.72,0,0,1-.59-.39l-5.36-5.38q-.12-.12-.22-.24t-.2-.26h4.22l1.36,2.04a.754.754,0,0,0,.28.26.771.771,0,0,0,.38.1.843.843,0,0,0,.78-.56l1.08-3.24.68,1.04a.941.941,0,0,0,.3.26.771.771,0,0,0,.38.1h4.64l-.2.24-.2.24-5.38,5.4a1.746,1.746,0,0,1-.58.39A1.79,1.79,0,0,1,88,230.4Z" transform="translate(-80 -216)" fill="#f3f0ef"/>
</svg>
