<svg width="49" height="48" viewBox="0 0 49 48" fill="none" xmlns="http://www.w3.org/2000/svg">
<path d="M24.5 42C23.9 42 23.325 41.8917 22.775 41.675C22.225 41.4583 21.7333 41.1333 21.3 40.7L7.9 27.25C6.73333 26.0833 5.875 24.75 5.325 23.25C4.775 21.75 4.5 20.1833 4.5 18.55C4.5 15.1167 5.61667 12.1667 7.85 9.7C10.0833 7.23333 12.8667 6 16.2 6C17.8 6 19.3083 6.31667 20.725 6.95C22.1417 7.58333 23.4 8.46667 24.5 9.6C25.5667 8.46667 26.8083 7.58333 28.225 6.95C29.6417 6.31667 31.15 6 32.75 6C36.0833 6 38.875 7.23333 41.125 9.7C43.375 12.1667 44.5 15.1 44.5 18.5C44.5 20.1333 44.2167 21.7 43.65 23.2C43.0833 24.7 42.2333 26.0333 41.1 27.2L27.65 40.7C27.2167 41.1333 26.7333 41.4583 26.2 41.675C25.6667 41.8917 25.1 42 24.5 42ZM26.5 16C26.8333 16 27.15 16.0833 27.45 16.25C27.75 16.4167 27.9833 16.6333 28.15 16.9L31.55 22H39.85C40.0833 21.4333 40.2583 20.8583 40.375 20.275C40.4917 19.6917 40.55 19.1 40.55 18.5C40.4833 16.2 39.7167 14.225 38.25 12.575C36.7833 10.925 34.95 10.1 32.75 10.1C31.7167 10.1 30.725 10.3 29.775 10.7C28.825 11.1 28 11.6833 27.3 12.45L25.95 13.9C25.7833 14.1 25.5667 14.2583 25.3 14.375C25.0333 14.4917 24.7667 14.55 24.5 14.55C24.2333 14.55 23.9667 14.4917 23.7 14.375C23.4333 14.2583 23.2 14.1 23 13.9L21.65 12.45C20.95 11.6833 20.1333 11.0833 19.2 10.65C18.2667 10.2167 17.2667 10 16.2 10C14 10 12.1667 10.8417 10.7 12.525C9.23333 14.2083 8.5 16.2 8.5 18.5C8.5 19.1 8.55 19.6917 8.65 20.275C8.75 20.8583 8.91667 21.4333 9.15 22H18.5C18.8333 22 19.15 22.0833 19.45 22.25C19.75 22.4167 19.9833 22.6333 20.15 22.9L21.9 25.5L24.6 17.4C24.7333 17 24.975 16.6667 25.325 16.4C25.675 16.1333 26.0667 16 26.5 16ZM27.1 22.5L24.4 30.6C24.2667 31 24.0167 31.3333 23.65 31.6C23.2833 31.8667 22.8833 32 22.45 32C22.1167 32 21.8 31.9167 21.5 31.75C21.2 31.5833 20.9667 31.3667 20.8 31.1L17.4 26H12.3L24.15 37.85C24.2167 37.9167 24.275 37.9583 24.325 37.975C24.375 37.9917 24.4333 38 24.5 38C24.5667 38 24.625 37.9917 24.675 37.975C24.725 37.9583 24.7833 37.9167 24.85 37.85L36.65 26H30.5C30.1667 26 29.85 25.9167 29.55 25.75C29.25 25.5833 29 25.3667 28.8 25.1L27.1 22.5Z" fill="#231F20"/>
</svg>
