<svg width="48" height="48" viewBox="0 0 48 48" fill="none" xmlns="http://www.w3.org/2000/svg">
<path d="M13.6 40C12.6 40 11.75 39.65 11.05 38.95C10.35 38.25 10 37.4 10 36.4C10 35.7 10.2 35.0417 10.6 34.425C11 33.8083 11.5333 33.3667 12.2 33.1L20 30V25.5C18.4 27.3333 16.6 28.7917 14.6 29.875C12.6 30.9583 10.4333 31.6333 8.1 31.9C7.53333 31.9667 7.04167 31.8083 6.625 31.425C6.20833 31.0417 6 30.5667 6 30C6 29.4333 6.18333 28.95 6.55 28.55C6.91667 28.15 7.38333 27.9167 7.95 27.85C9.78333 27.5833 11.4667 27.0167 13 26.15C14.5333 25.2833 15.9333 24.1 17.2 22.6L19.9 19.4C20.3 18.9333 20.7667 18.5833 21.3 18.35C21.8333 18.1167 22.4 18 23 18H25C25.6 18 26.1667 18.1167 26.7 18.35C27.2333 18.5833 27.7 18.9333 28.1 19.4L30.8 22.6C32.0667 24.1 33.4667 25.2833 35 26.15C36.5333 27.0167 38.2167 27.5833 40.05 27.85C40.6167 27.9167 41.0833 28.15 41.45 28.55C41.8167 28.95 42 29.4333 42 30C42 30.5667 41.7917 31.0417 41.375 31.425C40.9583 31.8083 40.4667 31.9667 39.9 31.9C37.5667 31.6333 35.4 30.9583 33.4 29.875C31.4 28.7917 29.6 27.3333 28 25.5V30L35.8 33.1C36.4667 33.3667 37 33.8083 37.4 34.425C37.8 35.0417 38 35.7 38 36.4C38 37.4 37.65 38.25 36.95 38.95C36.25 39.65 35.4 40 34.4 40H20V39C20 38.1333 20.2833 37.4167 20.85 36.85C21.4167 36.2833 22.1333 36 23 36H29C29.3 36 29.5417 35.9083 29.725 35.725C29.9083 35.5417 30 35.3 30 35C30 34.7 29.9083 34.4583 29.725 34.275C29.5417 34.0917 29.3 34 29 34H23C21.6 34 20.4167 34.4833 19.45 35.45C18.4833 36.4167 18 37.6 18 39V40H13.6ZM24 16C22.9 16 21.9583 15.6083 21.175 14.825C20.3917 14.0417 20 13.1 20 12C20 10.9 20.3917 9.95833 21.175 9.175C21.9583 8.39167 22.9 8 24 8C25.1 8 26.0417 8.39167 26.825 9.175C27.6083 9.95833 28 10.9 28 12C28 13.1 27.6083 14.0417 26.825 14.825C26.0417 15.6083 25.1 16 24 16Z" fill="#231F20"/>
</svg>
