<svg width="49" height="48" viewBox="0 0 49 48" fill="none" xmlns="http://www.w3.org/2000/svg">
<path d="M8.5 38.1176V34.7294C8.5 33.6941 8.78333 32.7216 9.35 31.8118C9.91667 30.902 10.7 30.2118 11.7 29.7412C13.4 28.9255 15.3167 28.2353 17.45 27.6706C19.5833 27.1059 21.9333 26.8235 24.5 26.8235C27.0667 26.8235 29.4167 27.1059 31.55 27.6706C33.6833 28.2353 35.6 28.9255 37.3 29.7412C38.3 30.2118 39.0833 30.902 39.65 31.8118C40.2167 32.7216 40.5 33.6941 40.5 34.7294V38.1176C40.5 38.651 40.3083 39.098 39.925 39.4588C39.5417 39.8196 39.0667 40 38.5 40H10.5C9.93333 40 9.45833 39.8196 9.075 39.4588C8.69167 39.098 8.5 38.651 8.5 38.1176ZM12.5 36.2353H36.5V34.7294C36.5 34.3843 36.4083 34.0706 36.225 33.7882C36.0417 33.5059 35.8 33.2863 35.5 33.1294C34.3 32.5647 32.7583 32 30.875 31.4353C28.9917 30.8706 26.8667 30.5882 24.5 30.5882C22.1333 30.5882 20.0083 30.8706 18.125 31.4353C16.2417 32 14.7 32.5647 13.5 33.1294C13.2 33.2863 12.9583 33.5059 12.775 33.7882C12.5917 34.0706 12.5 34.3843 12.5 34.7294V36.2353ZM24.5 24.9412C22.3 24.9412 20.4167 24.2039 18.85 22.7294C17.2833 21.2549 16.5 19.4824 16.5 17.4118H16C15.7 17.4118 15.4583 17.3255 15.275 17.1529C15.0917 16.9804 15 16.7529 15 16.4706C15 16.1882 15.0917 15.9608 15.275 15.7882C15.4583 15.6157 15.7 15.5294 16 15.5294H16.5C16.5 14.1176 16.8667 12.8471 17.6 11.7176C18.3333 10.5882 19.3 9.69412 20.5 9.03529V10.8235C20.5 11.1059 20.5917 11.3333 20.775 11.5059C20.9583 11.6784 21.2 11.7647 21.5 11.7647C21.8 11.7647 22.0417 11.6784 22.225 11.5059C22.4083 11.3333 22.5 11.1059 22.5 10.8235V8.28235C22.8 8.18824 23.1167 8.11765 23.45 8.07059C23.7833 8.02353 24.1333 8 24.5 8C24.8667 8 25.2167 8.02353 25.55 8.07059C25.8833 8.11765 26.2 8.18824 26.5 8.28235V10.8235C26.5 11.1059 26.5917 11.3333 26.775 11.5059C26.9583 11.6784 27.2 11.7647 27.5 11.7647C27.8 11.7647 28.0417 11.6784 28.225 11.5059C28.4083 11.3333 28.5 11.1059 28.5 10.8235V9.03529C29.7 9.69412 30.6667 10.5882 31.4 11.7176C32.1333 12.8471 32.5 14.1176 32.5 15.5294H33C33.3 15.5294 33.5417 15.6157 33.725 15.7882C33.9083 15.9608 34 16.1882 34 16.4706C34 16.7529 33.9083 16.9804 33.725 17.1529C33.5417 17.3255 33.3 17.4118 33 17.4118H32.5C32.5 19.4824 31.7167 21.2549 30.15 22.7294C28.5833 24.2039 26.7 24.9412 24.5 24.9412ZM24.5 21.1765C25.6 21.1765 26.5417 20.8078 27.325 20.0706C28.1083 19.3333 28.5 18.4471 28.5 17.4118H20.5C20.5 18.4471 20.8917 19.3333 21.675 20.0706C22.4583 20.8078 23.4 21.1765 24.5 21.1765Z" fill="#231F20"/>
</svg>
