<svg width="48" height="48" viewBox="0 0 48 48" fill="none" xmlns="http://www.w3.org/2000/svg">
<path d="M6 36C4.9 36 3.95833 35.6083 3.175 34.825C2.39167 34.0417 2 33.1 2 32C2 30.9 2.39167 29.9583 3.175 29.175C3.95833 28.3917 4.9 28 6 28H6.525C6.675 28 6.83333 28.0333 7 28.1L16.1 19C16.0333 18.8333 16 18.675 16 18.525V18C16 16.9 16.3917 15.9583 17.175 15.175C17.9583 14.3917 18.9 14 20 14C21.1 14 22.0417 14.3917 22.825 15.175C23.6083 15.9583 24 16.9 24 18C24 18.0667 23.9667 18.4 23.9 19L29 24.1C29.1667 24.0333 29.325 24 29.475 24H30.525C30.675 24 30.8333 24.0333 31 24.1L38.1 17C38.0333 16.8333 38 16.675 38 16.525V16C38 14.9 38.3917 13.9583 39.175 13.175C39.9583 12.3917 40.9 12 42 12C43.1 12 44.0417 12.3917 44.825 13.175C45.6083 13.9583 46 14.9 46 16C46 17.1 45.6083 18.0417 44.825 18.825C44.0417 19.6083 43.1 20 42 20H41.475C41.325 20 41.1667 19.9667 41 19.9L33.9 27C33.9667 27.1667 34 27.325 34 27.475V28C34 29.1 33.6083 30.0417 32.825 30.825C32.0417 31.6083 31.1 32 30 32C28.9 32 27.9583 31.6083 27.175 30.825C26.3917 30.0417 26 29.1 26 28V27.475C26 27.325 26.0333 27.1667 26.1 27L21 21.9C20.8333 21.9667 20.675 22 20.525 22H20C19.9333 22 19.6 21.9667 19 21.9L9.9 31C9.96667 31.1667 10 31.325 10 31.475V32C10 33.1 9.60833 34.0417 8.825 34.825C8.04167 35.6083 7.1 36 6 36Z" fill="#231F20"/>
</svg>
