<svg width="49" height="48" viewBox="0 0 49 48" fill="none" xmlns="http://www.w3.org/2000/svg">
<path d="M12.35 42C11.5833 42 10.8417 41.7333 10.125 41.2C9.40833 40.6667 8.93333 40.0167 8.7 39.25C7.86667 36.45 7.18333 34.025 6.65 31.975C6.11667 29.925 5.69167 28.125 5.375 26.575C5.05833 25.025 4.83333 23.65 4.7 22.45C4.56667 21.25 4.5 20.1 4.5 19C4.5 15.9333 5.56667 13.3333 7.7 11.2C9.83333 9.06667 12.4333 8 15.5 8H25.5C26.4 6.8 27.5417 5.83333 28.925 5.1C30.3083 4.36667 31.8333 4 33.5 4C34.3333 4 35.0417 4.29167 35.625 4.875C36.2083 5.45833 36.5 6.16667 36.5 7C36.5 7.2 36.475 7.4 36.425 7.6C36.375 7.8 36.3167 7.98333 36.25 8.15C36.1167 8.51667 35.9917 8.88333 35.875 9.25C35.7583 9.61667 35.6667 10.0167 35.6 10.45L40.15 15H42.5C43.0667 15 43.5417 15.1917 43.925 15.575C44.3083 15.9583 44.5 16.4333 44.5 17V27.5C44.5 27.9333 44.375 28.3167 44.125 28.65C43.875 28.9833 43.5333 29.2333 43.1 29.4L38.85 30.8L36.35 39.15C36.0833 40.0167 35.6 40.7083 34.9 41.225C34.2 41.7417 33.4 42 32.5 42H28.5C27.4 42 26.4583 41.6083 25.675 40.825C24.8917 40.0417 24.5 39.1 24.5 38H20.5C20.5 39.1 20.1083 40.0417 19.325 40.825C18.5417 41.6083 17.6 42 16.5 42H12.35ZM12.5 38H16.5V34H28.5V38H32.5L35.6 27.7L40.5 26.05V19H38.5L31.5 12C31.5 11.3333 31.5417 10.6833 31.625 10.05C31.7083 9.41667 31.8333 8.8 32 8.2C31.0333 8.46667 30.1833 8.925 29.45 9.575C28.7167 10.225 28.1833 11.0333 27.85 12H15.5C13.5667 12 11.9167 12.6833 10.55 14.05C9.18333 15.4167 8.5 17.0667 8.5 19C8.5 20.3667 8.85 22.7083 9.55 26.025C10.25 29.3417 11.2333 33.3333 12.5 38ZM32.5 22C33.0667 22 33.5417 21.8083 33.925 21.425C34.3083 21.0417 34.5 20.5667 34.5 20C34.5 19.4333 34.3083 18.9583 33.925 18.575C33.5417 18.1917 33.0667 18 32.5 18C31.9333 18 31.4583 18.1917 31.075 18.575C30.6917 18.9583 30.5 19.4333 30.5 20C30.5 20.5667 30.6917 21.0417 31.075 21.425C31.4583 21.8083 31.9333 22 32.5 22ZM24.5 18C25.0667 18 25.5417 17.8083 25.925 17.425C26.3083 17.0417 26.5 16.5667 26.5 16C26.5 15.4333 26.3083 14.9583 25.925 14.575C25.5417 14.1917 25.0667 14 24.5 14H18.5C17.9333 14 17.4583 14.1917 17.075 14.575C16.6917 14.9583 16.5 15.4333 16.5 16C16.5 16.5667 16.6917 17.0417 17.075 17.425C17.4583 17.8083 17.9333 18 18.5 18H24.5Z" fill="#231F20"/>
</svg>
