<svg width="49" height="48" viewBox="0 0 49 48" fill="none" xmlns="http://www.w3.org/2000/svg">
<path d="M27.5 44C23.9 44 20.8333 42.7333 18.3 40.2C15.7667 37.6667 14.5 34.6 14.5 31V29.85C11.6333 29.3833 9.25 28.0417 7.35 25.825C5.45 23.6083 4.5 21 4.5 18V8C4.5 7.43333 4.69167 6.95833 5.075 6.575C5.45833 6.19167 5.93333 6 6.5 6H10.5C10.5 5.43333 10.6917 4.95833 11.075 4.575C11.4583 4.19167 11.9333 4 12.5 4C13.0667 4 13.5417 4.19167 13.925 4.575C14.3083 4.95833 14.5 5.43333 14.5 6V10C14.5 10.5667 14.3083 11.0417 13.925 11.425C13.5417 11.8083 13.0667 12 12.5 12C11.9333 12 11.4583 11.8083 11.075 11.425C10.6917 11.0417 10.5 10.5667 10.5 10H8.5V18C8.5 20.2 9.28333 22.0833 10.85 23.65C12.4167 25.2167 14.3 26 16.5 26C18.7 26 20.5833 25.2167 22.15 23.65C23.7167 22.0833 24.5 20.2 24.5 18V10H22.5C22.5 10.5667 22.3083 11.0417 21.925 11.425C21.5417 11.8083 21.0667 12 20.5 12C19.9333 12 19.4583 11.8083 19.075 11.425C18.6917 11.0417 18.5 10.5667 18.5 10V6C18.5 5.43333 18.6917 4.95833 19.075 4.575C19.4583 4.19167 19.9333 4 20.5 4C21.0667 4 21.5417 4.19167 21.925 4.575C22.3083 4.95833 22.5 5.43333 22.5 6H26.5C27.0667 6 27.5417 6.19167 27.925 6.575C28.3083 6.95833 28.5 7.43333 28.5 8V18C28.5 21 27.55 23.6083 25.65 25.825C23.75 28.0417 21.3667 29.3833 18.5 29.85V31C18.5 33.5 19.375 35.625 21.125 37.375C22.875 39.125 25 40 27.5 40C30 40 32.125 39.125 33.875 37.375C35.625 35.625 36.5 33.5 36.5 31V27.65C35.3333 27.2167 34.375 26.4917 33.625 25.475C32.875 24.4583 32.5 23.3 32.5 22C32.5 20.3333 33.0833 18.9167 34.25 17.75C35.4167 16.5833 36.8333 16 38.5 16C40.1667 16 41.5833 16.5833 42.75 17.75C43.9167 18.9167 44.5 20.3333 44.5 22C44.5 23.3 44.125 24.4583 43.375 25.475C42.625 26.4917 41.6667 27.2167 40.5 27.65V31C40.5 34.6 39.2333 37.6667 36.7 40.2C34.1667 42.7333 31.1 44 27.5 44ZM38.5 24C39.0667 24 39.5417 23.8083 39.925 23.425C40.3083 23.0417 40.5 22.5667 40.5 22C40.5 21.4333 40.3083 20.9583 39.925 20.575C39.5417 20.1917 39.0667 20 38.5 20C37.9333 20 37.4583 20.1917 37.075 20.575C36.6917 20.9583 36.5 21.4333 36.5 22C36.5 22.5667 36.6917 23.0417 37.075 23.425C37.4583 23.8083 37.9333 24 38.5 24Z" fill="#231F20"/>
</svg>
