<svg width="48" height="48" viewBox="0 0 48 48" fill="none" xmlns="http://www.w3.org/2000/svg">
<path d="M19.65 41.4C16.2167 40.4333 13.4167 38.5416 11.25 35.725C9.08333 32.9083 8 29.6666 8 26C8 24.1 8.31667 22.2916 8.95 20.575C9.58333 18.8583 10.4833 17.2833 11.65 15.85C12.0167 15.45 12.4667 15.2416 13 15.225C13.5333 15.2083 14.0167 15.4166 14.45 15.85C14.8167 16.2166 15.0083 16.6666 15.025 17.2C15.0417 17.7333 14.8667 18.2333 14.5 18.7C13.7 19.7333 13.0833 20.8666 12.65 22.1C12.2167 23.3333 12 24.6333 12 26C12 28.7 12.7917 31.1083 14.375 33.225C15.9583 35.3416 18 36.7833 20.5 37.55C20.9333 37.6833 21.2917 37.9333 21.575 38.3C21.8583 38.6666 22 39.0666 22 39.5C22 40.1666 21.7667 40.6916 21.3 41.075C20.8333 41.4583 20.2833 41.5666 19.65 41.4ZM28.35 41.4C27.7167 41.5666 27.1667 41.45 26.7 41.05C26.2333 40.65 26 40.1166 26 39.45C26 39.05 26.1417 38.6666 26.425 38.3C26.7083 37.9333 27.0667 37.6833 27.5 37.55C30 36.75 32.0417 35.3 33.625 33.2C35.2083 31.1 36 28.7 36 26C36 22.6666 34.8333 19.8333 32.5 17.5C30.1667 15.1666 27.3333 14 24 14H23.85L24.65 14.8C25.0167 15.1666 25.2 15.6333 25.2 16.2C25.2 16.7666 25.0167 17.2333 24.65 17.6C24.2833 17.9666 23.8167 18.15 23.25 18.15C22.6833 18.15 22.2167 17.9666 21.85 17.6L17.65 13.4C17.45 13.2 17.3083 12.9833 17.225 12.75C17.1417 12.5166 17.1 12.2666 17.1 12C17.1 11.7333 17.1417 11.4833 17.225 11.25C17.3083 11.0166 17.45 10.8 17.65 10.6L21.85 6.39998C22.2167 6.03331 22.6833 5.84998 23.25 5.84998C23.8167 5.84998 24.2833 6.03331 24.65 6.39998C25.0167 6.76664 25.2 7.23331 25.2 7.79998C25.2 8.36664 25.0167 8.83331 24.65 9.19998L23.85 9.99998H24C28.4667 9.99998 32.25 11.55 35.35 14.65C38.45 17.75 40 21.5333 40 26C40 29.6333 38.9167 32.8666 36.75 35.7C34.5833 38.5333 31.7833 40.4333 28.35 41.4Z" fill="#231F20"/>
</svg>
